<?xml version="1.0" encoding="UTF-8" standalone="no"?>
<svg
   width="512"
   height="512"
   version="1.1"
   viewBox="0 0 384 384"
   id="svg104"
   sodipodi:docname="simplescreenrecorder.svg"
   inkscape:version="1.2.1 (9c6d41e4, 2022-07-14)"
   xmlns:inkscape="http://www.inkscape.org/namespaces/inkscape"
   xmlns:sodipodi="http://sodipodi.sourceforge.net/DTD/sodipodi-0.dtd"
   xmlns="http://www.w3.org/2000/svg"
   xmlns:svg="http://www.w3.org/2000/svg">
  <sodipodi:namedview
     id="namedview106"
     pagecolor="#ffffff"
     bordercolor="#000000"
     borderopacity="0.25"
     inkscape:showpageshadow="2"
     inkscape:pageopacity="0.0"
     inkscape:pagecheckerboard="0"
     inkscape:deskcolor="#d1d1d1"
     showgrid="false"
     inkscape:zoom="2.0058594"
     inkscape:cx="255.75073"
     inkscape:cy="256"
     inkscape:window-width="1390"
     inkscape:window-height="1205"
     inkscape:window-x="69"
     inkscape:window-y="25"
     inkscape:window-maximized="0"
     inkscape:current-layer="svg104" />
  <defs
     id="defs76">
    <linearGradient
       id="c"
       x1="24.161"
       x2="470.92"
       y1="255.65"
       y2="-4.7024"
       gradientTransform="translate(-.025142 -.011297)"
       gradientUnits="userSpaceOnUse">
      <stop
         stop-color="#367bf0"
         offset="0"
         id="stop71" />
      <stop
         stop-color="#b7164b"
         stop-opacity=".99608"
         offset="1"
         id="stop73" />
    </linearGradient>
  </defs>
  <path
     d="m158.18 263.77h67.652v54.723h-67.652z"
     fill="#262833"
     id="path78" />
  <path
     d="m158.07 264.17h67.852v54.168z"
     fill="#171717"
     id="path80" />
  <path
     d="m23.992 55.281h336.01c4.5391 0 8.2188 3.4648 8.2188 7.7422v193.58c0 4.2774-3.6797 7.7461-8.2188 7.7461h-336.01c-4.5352 0-8.2148-3.4688-8.2148-7.7461v-193.58c0-4.2773 3.6797-7.7422 8.2148-7.7422z"
     id="path82" />
  <path
     d="m132.2 317.36h119.6c2.5781 0 4.6641 1.9688 4.6641 4.3984v2.5664c0 2.4258-2.0859 4.3945-4.6641 4.3945h-119.6c-2.5781 0-4.6641-1.9688-4.6641-4.3945v-2.5664c0-2.4297 2.0859-4.3984 4.6641-4.3984z"
     fill="#171717"
     id="path84" />
  <path
     d="m23.992 59.781h336.01c4.5391 0 8.2187 3.4648 8.2187 7.7422v193.58c0 4.2774-3.6797 7.7461-8.2187 7.7461h-336.01c-4.5352 0-8.2148-3.4688-8.2148-7.7461v-193.58c0-4.2773 3.6797-7.7422 8.2148-7.7422z"
     opacity=".3"
     id="path86" />
  <rect
     x="24.136"
     y="63.993"
     width="335.73"
     height="191.64"
     rx="3.7555"
     ry="3.7555"
     fill="url(#c)"
     id="rect88" />
  <path
     d="m224.82 234.8h-14.855v15.797h14.855zm-22.281 0h-14.855v15.797h14.855zm-22.285 0h-14.855v15.797h14.855z"
     opacity=".3"
     id="path90" />
  <path
     d="m220.32 230.3h-14.855v15.797h14.855zm-22.281 0h-14.855v15.797h14.855zm-22.285 0h-14.855v15.797h14.855z"
     fill="#fff"
     id="path92" />
  <path
     d="m237-207c-3.0976 2.9258-10.262 9.0781-10.262 9.0781l16.789 16.918s7.2695-7.4687 10.555-10.57c0.8125-0.76953 0.71094-2.4961-0.10546-3.2656-2.5469-2.4023-6.7695-6.3047-6.7695-6.3047s-3.9766-3.7812-6.4258-6.0898c-0.89062-0.84375-2.8867-0.60938-3.7812 0.23437zm-17.641 15.117-44.887 42.285 0.38672 16.723 17.523-0.0976 44.395-41.895z"
     fill="#fff"
     fill-rule="evenodd"
     id="path94" />
</svg>
